<svg width="164" height="35" viewBox="0 0 164 35" fill="none" xmlns="http://www.w3.org/2000/svg">
<g clip-path="url(#clip0_2070_28)">
<path d="M19.8322 3.00533L16.7625 2.18066L14.1757 11.8601L11.8402 3.12144L8.77051 3.94611L11.2938 13.3876L5.00884 7.08627L2.76167 9.33929L9.6555 16.2511L1.07033 13.9447L0.247803 17.0224L9.62819 19.5424C9.52079 19.078 9.46397 18.5941 9.46397 18.0969C9.46397 14.5774 12.3096 11.7243 15.82 11.7243C19.3303 11.7243 22.1759 14.5774 22.1759 18.0969C22.1759 18.5909 22.1198 19.0718 22.0137 19.5335L30.5388 21.8237L31.3613 18.746L21.9436 16.216L30.5293 13.9094L29.7068 10.8318L20.2895 13.3617L26.5745 7.0604L24.3273 4.80737L17.5291 11.6233L19.8322 3.00533Z" fill="#5D74F1"/>
<path d="M22.0048 19.5693C21.7416 20.6849 21.186 21.6871 20.4236 22.49L26.5996 28.6822L28.8468 26.4291L22.0048 19.5693Z" fill="#5D74F1"/>
<path d="M20.3612 22.5548C19.5896 23.3449 18.6146 23.9345 17.5211 24.2383L19.7685 32.6473L22.8381 31.8226L20.3612 22.5548Z" fill="#5D74F1"/>
<path d="M17.4065 24.2691C16.8991 24.3999 16.3674 24.4694 15.8194 24.4694C15.2323 24.4694 14.6638 24.3895 14.1241 24.2402L11.8748 32.6568L14.9444 33.4814L17.4065 24.2691Z" fill="#5D74F1"/>
<path d="M14.0156 24.2091C12.9388 23.8902 11.9811 23.293 11.2253 22.5007L5.03406 28.708L7.28123 30.961L14.0156 24.2091Z" fill="#5D74F1"/>
<path d="M11.1742 22.4458C10.4314 21.6484 9.89026 20.6596 9.6327 19.5613L1.07983 21.859L1.90235 24.9366L11.1742 22.4458Z" fill="#5D74F1"/>
</g>
<path d="M45.9408 27.5V9.62H53.4768C54.6608 9.62 55.6688 9.828 56.5008 10.244C57.3488 10.644 57.9968 11.22 58.4448 11.972C58.9088 12.708 59.1408 13.604 59.1408 14.66C59.1408 15.476 58.9168 16.244 58.4688 16.964C58.0368 17.668 57.3408 18.252 56.3808 18.716V17.204C57.2608 17.54 57.9568 17.956 58.4688 18.452C58.9808 18.948 59.3408 19.5 59.5488 20.108C59.7568 20.716 59.8608 21.356 59.8608 22.028C59.8608 23.74 59.2928 25.084 58.1568 26.06C57.0368 27.02 55.4768 27.5 53.4768 27.5H45.9408ZM49.2048 24.62H53.8128C54.6608 24.62 55.3328 24.388 55.8288 23.924C56.3408 23.444 56.5968 22.812 56.5968 22.028C56.5968 21.244 56.3408 20.612 55.8288 20.132C55.3328 19.652 54.6608 19.412 53.8128 19.412H49.2048V24.62ZM49.2048 16.556H53.6448C54.3168 16.556 54.8528 16.364 55.2528 15.98C55.6528 15.58 55.8528 15.068 55.8528 14.444C55.8528 13.82 55.6528 13.324 55.2528 12.956C54.8528 12.588 54.3168 12.404 53.6448 12.404H49.2048V16.556ZM69.1346 27.788C67.8546 27.788 66.6866 27.492 65.6306 26.9C64.5906 26.308 63.7586 25.5 63.1346 24.476C62.5266 23.452 62.2226 22.284 62.2226 20.972C62.2226 19.66 62.5266 18.492 63.1346 17.468C63.7586 16.444 64.5906 15.636 65.6306 15.044C66.6706 14.452 67.8386 14.156 69.1346 14.156C70.4146 14.156 71.5746 14.452 72.6146 15.044C73.6546 15.636 74.4786 16.444 75.0866 17.468C75.7106 18.476 76.0226 19.644 76.0226 20.972C76.0226 22.284 75.7106 23.452 75.0866 24.476C74.4626 25.5 73.6306 26.308 72.5906 26.9C71.5506 27.492 70.3986 27.788 69.1346 27.788ZM69.1346 24.908C69.8386 24.908 70.4546 24.74 70.9826 24.404C71.5266 24.068 71.9506 23.604 72.2546 23.012C72.5746 22.404 72.7346 21.724 72.7346 20.972C72.7346 20.204 72.5746 19.532 72.2546 18.956C71.9506 18.364 71.5266 17.9 70.9826 17.564C70.4546 17.212 69.8386 17.036 69.1346 17.036C68.4146 17.036 67.7826 17.212 67.2386 17.564C66.6946 17.9 66.2626 18.364 65.9426 18.956C65.6386 19.532 65.4866 20.204 65.4866 20.972C65.4866 21.724 65.6386 22.404 65.9426 23.012C66.2626 23.604 66.6946 24.068 67.2386 24.404C67.7826 24.74 68.4146 24.908 69.1346 24.908ZM78.8868 27.5V14.444H81.8388V17.348L81.5988 16.916C81.9028 15.94 82.3748 15.26 83.0148 14.876C83.6708 14.492 84.4548 14.3 85.3668 14.3H86.1348V17.084H85.0068C84.1108 17.084 83.3908 17.364 82.8468 17.924C82.3028 18.468 82.0308 19.236 82.0308 20.228V27.5H78.8868ZM92.3034 27.788C91.3914 27.788 90.5994 27.636 89.9274 27.332C89.2554 27.028 88.7354 26.596 88.3674 26.036C87.9994 25.46 87.8154 24.796 87.8154 24.044C87.8154 23.324 87.9754 22.684 88.2954 22.124C88.6154 21.548 89.1114 21.068 89.7834 20.684C90.4554 20.3 91.3034 20.028 92.3274 19.868L96.5994 19.172V21.572L92.9274 22.196C92.3034 22.308 91.8394 22.508 91.5354 22.796C91.2314 23.084 91.0794 23.46 91.0794 23.924C91.0794 24.372 91.2474 24.732 91.5834 25.004C91.9354 25.26 92.3674 25.388 92.8794 25.388C93.5354 25.388 94.1114 25.252 94.6074 24.98C95.1194 24.692 95.5114 24.3 95.7834 23.804C96.0714 23.308 96.2154 22.764 96.2154 22.172V18.812C96.2154 18.252 95.9914 17.788 95.5434 17.42C95.1114 17.036 94.5354 16.844 93.8154 16.844C93.1434 16.844 92.5434 17.028 92.0154 17.396C91.5034 17.748 91.1274 18.22 90.8874 18.812L88.3194 17.564C88.5754 16.876 88.9754 16.284 89.5194 15.788C90.0794 15.276 90.7354 14.876 91.4874 14.588C92.2394 14.3 93.0554 14.156 93.9354 14.156C95.0074 14.156 95.9514 14.356 96.7674 14.756C97.5834 15.14 98.2154 15.684 98.6634 16.388C99.1274 17.076 99.3594 17.884 99.3594 18.812V27.5H96.3834V25.268L97.0554 25.22C96.7194 25.78 96.3194 26.252 95.8554 26.636C95.3914 27.004 94.8634 27.292 94.2714 27.5C93.6794 27.692 93.0234 27.788 92.3034 27.788ZM107.755 27.5V9.62H113.587C115.475 9.62 117.115 10.004 118.507 10.772C119.915 11.524 121.003 12.572 121.771 13.916C122.539 15.244 122.923 16.788 122.923 18.548C122.923 20.292 122.539 21.844 121.771 23.204C121.003 24.548 119.915 25.604 118.507 26.372C117.115 27.124 115.475 27.5 113.587 27.5H107.755ZM111.019 24.62H113.659C114.875 24.62 115.923 24.372 116.803 23.876C117.699 23.364 118.395 22.66 118.891 21.764C119.387 20.852 119.635 19.78 119.635 18.548C119.635 17.3 119.387 16.228 118.891 15.332C118.395 14.436 117.699 13.74 116.803 13.244C115.923 12.748 114.875 12.5 113.659 12.5H111.019V24.62ZM132.12 27.788C130.84 27.788 129.672 27.492 128.616 26.9C127.576 26.308 126.744 25.5 126.12 24.476C125.512 23.452 125.208 22.284 125.208 20.972C125.208 19.66 125.512 18.492 126.12 17.468C126.744 16.444 127.576 15.636 128.616 15.044C129.656 14.452 130.824 14.156 132.12 14.156C133.4 14.156 134.56 14.452 135.6 15.044C136.64 15.636 137.464 16.444 138.073 17.468C138.696 18.476 139.008 19.644 139.008 20.972C139.008 22.284 138.696 23.452 138.073 24.476C137.448 25.5 136.616 26.308 135.576 26.9C134.536 27.492 133.384 27.788 132.12 27.788ZM132.12 24.908C132.824 24.908 133.44 24.74 133.968 24.404C134.512 24.068 134.936 23.604 135.24 23.012C135.56 22.404 135.72 21.724 135.72 20.972C135.72 20.204 135.56 19.532 135.24 18.956C134.936 18.364 134.512 17.9 133.968 17.564C133.44 17.212 132.824 17.036 132.12 17.036C131.4 17.036 130.768 17.212 130.224 17.564C129.68 17.9 129.248 18.364 128.928 18.956C128.624 19.532 128.472 20.204 128.472 20.972C128.472 21.724 128.624 22.404 128.928 23.012C129.248 23.604 129.68 24.068 130.224 24.404C130.768 24.74 131.4 24.908 132.12 24.908ZM145.833 27.788C144.921 27.788 144.129 27.636 143.457 27.332C142.785 27.028 142.265 26.596 141.897 26.036C141.529 25.46 141.345 24.796 141.345 24.044C141.345 23.324 141.505 22.684 141.825 22.124C142.145 21.548 142.641 21.068 143.313 20.684C143.985 20.3 144.833 20.028 145.857 19.868L150.129 19.172V21.572L146.457 22.196C145.833 22.308 145.369 22.508 145.065 22.796C144.761 23.084 144.609 23.46 144.609 23.924C144.609 24.372 144.777 24.732 145.113 25.004C145.465 25.26 145.897 25.388 146.409 25.388C147.065 25.388 147.641 25.252 148.137 24.98C148.649 24.692 149.041 24.3 149.313 23.804C149.601 23.308 149.745 22.764 149.745 22.172V18.812C149.745 18.252 149.521 17.788 149.073 17.42C148.641 17.036 148.065 16.844 147.345 16.844C146.673 16.844 146.073 17.028 145.545 17.396C145.033 17.748 144.657 18.22 144.417 18.812L141.849 17.564C142.105 16.876 142.505 16.284 143.049 15.788C143.609 15.276 144.265 14.876 145.017 14.588C145.769 14.3 146.585 14.156 147.465 14.156C148.537 14.156 149.481 14.356 150.297 14.756C151.113 15.14 151.745 15.684 152.193 16.388C152.657 17.076 152.889 17.884 152.889 18.812V27.5H149.913V25.268L150.585 25.22C150.249 25.78 149.849 26.252 149.385 26.636C148.921 27.004 148.393 27.292 147.801 27.5C147.209 27.692 146.553 27.788 145.833 27.788ZM156.275 27.5V14.444H159.227V17.348L158.987 16.916C159.291 15.94 159.763 15.26 160.403 14.876C161.059 14.492 161.843 14.3 162.755 14.3H163.523V17.084H162.395C161.499 17.084 160.779 17.364 160.235 17.924C159.691 18.468 159.419 19.236 159.419 20.228V27.5H156.275Z" fill="black"/>
<defs>
<clipPath id="clip0_2070_28">
<rect width="32" height="32.0833" fill="white" transform="translate(0 1.45825)"/>
</clipPath>
</defs>
</svg>
